<?xml version="1.0" standalone="no"?>
<!DOCTYPE svg PUBLIC "-//W3C//DTD SVG 20010904//EN"
 "http://www.w3.org/TR/2001/REC-SVG-20010904/DTD/svg10.dtd">
<svg version="1.0" xmlns="http://www.w3.org/2000/svg"
 width="500.000000pt" height="500.000000pt" viewBox="0 0 500.000000 500.000000"
 preserveAspectRatio="xMidYMid meet">

<g transform="translate(0.000000,500.000000) scale(0.100000,-0.100000)"
fill="#000000" stroke="none">
<path d="M1866 4882 c-16 -15 0 -35 65 -78 89 -60 119 -95 119 -140 0 -45 -6
-56 -109 -194 -77 -103 -135 -175 -280 -350 -305 -364 -842 -880 -1338 -1283
-88 -71 -133 -115 -133 -128 0 -52 89 -1 480 279 508 364 736 560 1408 1210
l262 254 58 -48 c31 -27 365 -358 742 -735 430 -430 697 -690 717 -698 27 -11
92 -10 360 3 547 27 552 28 565 43 20 25 -19 47 -217 118 -344 123 -655 267
-805 373 -162 114 -494 363 -900 676 -139 107 -349 273 -389 308 l-34 30 27
24 c14 14 26 31 26 38 0 50 -260 193 -480 264 -113 36 -137 42 -144 34z"/>
<path d="M2001 3906 c-13 -15 2 -28 114 -99 84 -54 89 -73 93 -334 l4 -222
-34 -5 c-18 -3 -159 -19 -313 -36 l-280 -30 -108 45 c-158 67 -247 87 -247 55
0 -5 25 -32 55 -61 34 -32 68 -78 87 -117 l31 -63 -6 -288 c-19 -808 -64
-1559 -118 -1956 -34 -256 -34 -238 1 -370 42 -156 87 -275 106 -275 8 0 49
31 91 70 43 38 291 237 551 442 376 297 472 377 472 395 0 32 -35 30 -85 -4
-155 -106 -535 -303 -707 -367 -158 -59 -194 -48 -191 56 2 64 84 1222 87
1224 0 1 24 -3 53 -9 50 -10 293 6 1027 68 161 14 170 14 182 -3 7 -10 31 -27
53 -37 36 -16 47 -16 82 -6 42 13 74 51 83 101 9 43 156 749 177 849 17 83 25
100 60 138 53 58 67 89 48 107 -33 32 -356 218 -378 218 -15 0 -35 -11 -49
-28 -23 -27 -33 -29 -201 -51 -97 -13 -211 -27 -255 -31 l-78 -8 5 60 c4 34 9
101 13 149 6 83 9 89 39 115 66 55 65 92 -7 158 -109 101 -188 139 -313 154
-117 13 -130 13 -144 -4z m961 -782 c9 -3 19 -12 22 -21 6 -15 -31 -354 -40
-362 -2 -2 -35 10 -74 28 l-70 33 -128 -16 c-70 -9 -176 -23 -237 -31 -167
-22 -742 -85 -775 -85 l-30 0 0 165 0 164 33 5 c17 3 185 22 372 41 672 70
731 76 790 85 56 7 95 5 137 -6z m-48 -566 c-21 -155 -57 -354 -65 -358 -8 -5
-212 -22 -684 -55 -496 -34 -555 -38 -559 -34 -2 2 2 92 8 199 l11 195 60 8
c212 30 889 85 1053 86 l182 1 -6 -42z"/>
<path d="M3270 2197 c0 -7 14 -44 30 -82 l30 -70 -67 -64 c-130 -122 -441
-345 -671 -481 l-73 -43 -32 30 c-83 77 -251 223 -286 248 -76 52 -211 95
-211 66 0 -10 17 -25 185 -162 218 -177 316 -291 948 -1106 187 -241 187 -241
235 -252 116 -25 280 -33 511 -28 244 7 323 15 344 36 18 19 -14 37 -187 103
-186 72 -354 152 -437 208 -89 61 -324 240 -420 321 -30 25 -135 112 -234 194
-99 82 -182 152 -185 155 -3 3 -38 34 -78 69 -40 35 -71 68 -70 73 2 5 84 42
183 82 218 88 572 240 637 272 41 21 62 24 155 24 137 0 153 4 153 39 0 63
-206 251 -385 352 -56 32 -75 36 -75 16z"/>
</g>
</svg>
